<svg width="180" height="40" viewBox="0 0 180 40" fill="none" xmlns="http://www.w3.org/2000/svg">
<rect width="180" height="40" fill="white"/>
<path d="M22.1136 10.5455H24.6364L30.5682 25.0341H30.7727L36.7045 10.5455H39.2273V28H37.25V14.7386H37.0795L31.625 28H29.7159L24.2614 14.7386H24.0909V28H22.1136V10.5455ZM44.4879 32.9091C44.147 32.9091 43.843 32.8807 43.576 32.8239C43.3089 32.7727 43.1243 32.7216 43.022 32.6705L43.5334 30.8977C44.022 31.0227 44.4538 31.0682 44.8288 31.0341C45.2038 31 45.5362 30.8324 45.826 30.5312C46.1214 30.2358 46.3913 29.7557 46.6357 29.0909L47.0107 28.0682L42.1697 14.9091H44.3516L47.9652 25.3409H48.1016L51.7152 14.9091H53.897L48.3402 29.9091C48.0902 30.5852 47.7805 31.1449 47.4112 31.5881C47.0419 32.0369 46.6129 32.3693 46.1243 32.5852C45.6413 32.8011 45.0959 32.9091 44.4879 32.9091ZM70.87 16H68.7564C68.6314 15.392 68.4126 14.858 68.1001 14.3977C67.7933 13.9375 67.4183 13.5511 66.9751 13.2386C66.5376 12.9205 66.0518 12.6818 65.5178 12.5227C64.9837 12.3636 64.4268 12.2841 63.8473 12.2841C62.7905 12.2841 61.8331 12.5511 60.9751 13.0852C60.1229 13.6193 59.4439 14.4062 58.9382 15.446C58.4382 16.4858 58.1882 17.7614 58.1882 19.2727C58.1882 20.7841 58.4382 22.0597 58.9382 23.0994C59.4439 24.1392 60.1229 24.9261 60.9751 25.4602C61.8331 25.9943 62.7905 26.2614 63.8473 26.2614C64.4268 26.2614 64.9837 26.1818 65.5178 26.0227C66.0518 25.8636 66.5376 25.6278 66.9751 25.3153C67.4183 24.9972 67.7933 24.608 68.1001 24.1477C68.4126 23.6818 68.6314 23.1477 68.7564 22.5455H70.87C70.7109 23.4375 70.4212 24.2358 70.0007 24.9403C69.5803 25.6449 69.0575 26.2443 68.4325 26.7386C67.8075 27.2273 67.1058 27.5994 66.3274 27.8551C65.5547 28.1108 64.728 28.2386 63.8473 28.2386C62.3587 28.2386 61.0348 27.875 59.8757 27.1477C58.7166 26.4205 57.8047 25.3864 57.1399 24.0455C56.4751 22.7045 56.1428 21.1136 56.1428 19.2727C56.1428 17.4318 56.4751 15.8409 57.1399 14.5C57.8047 13.1591 58.7166 12.125 59.8757 11.3977C61.0348 10.6705 62.3587 10.3068 63.8473 10.3068C64.728 10.3068 65.5547 10.4347 66.3274 10.6903C67.1058 10.946 67.8075 11.321 68.4325 11.8153C69.0575 12.304 69.5803 12.9006 70.0007 13.6051C70.4212 14.304 70.7109 15.1023 70.87 16ZM79.331 28.2727C78.1491 28.2727 77.1122 27.9915 76.2202 27.429C75.3338 26.8665 74.6406 26.0795 74.1406 25.0682C73.6463 24.0568 73.3991 22.875 73.3991 21.5227C73.3991 20.1591 73.6463 18.9687 74.1406 17.9517C74.6406 16.9347 75.3338 16.1449 76.2202 15.5824C77.1122 15.0199 78.1491 14.7386 79.331 14.7386C80.5128 14.7386 81.5469 15.0199 82.4332 15.5824C83.3253 16.1449 84.0185 16.9347 84.5128 17.9517C85.0128 18.9687 85.2628 20.1591 85.2628 21.5227C85.2628 22.875 85.0128 24.0568 84.5128 25.0682C84.0185 26.0795 83.3253 26.8665 82.4332 27.429C81.5469 27.9915 80.5128 28.2727 79.331 28.2727ZM79.331 26.4659C80.2287 26.4659 80.9673 26.2358 81.5469 25.7756C82.1264 25.3153 82.5554 24.7102 82.8338 23.9602C83.1122 23.2102 83.2514 22.3977 83.2514 21.5227C83.2514 20.6477 83.1122 19.8324 82.8338 19.0767C82.5554 18.321 82.1264 17.7102 81.5469 17.2443C80.9673 16.7784 80.2287 16.5455 79.331 16.5455C78.4332 16.5455 77.6946 16.7784 77.1151 17.2443C76.5355 17.7102 76.1065 18.321 75.8281 19.0767C75.5497 19.8324 75.4105 20.6477 75.4105 21.5227C75.4105 22.3977 75.5497 23.2102 75.8281 23.9602C76.1065 24.7102 76.5355 25.3153 77.1151 25.7756C77.6946 26.2358 78.4332 26.4659 79.331 26.4659ZM90.3445 20.125V28H88.3331V14.9091H90.2763V16.9545H90.4467C90.7536 16.2898 91.2195 15.7557 91.8445 15.3523C92.4695 14.9432 93.2763 14.7386 94.2649 14.7386C95.1513 14.7386 95.9268 14.9205 96.5916 15.2841C97.2564 15.642 97.7734 16.1875 98.1428 16.9205C98.5121 17.6477 98.6967 18.5682 98.6967 19.6818V28H96.6854V19.8182C96.6854 18.7898 96.4183 17.9886 95.8842 17.4148C95.3501 16.8352 94.6172 16.5455 93.6854 16.5455C93.0433 16.5455 92.4695 16.6847 91.9638 16.9631C91.4638 17.2415 91.0689 17.6477 90.7791 18.1818C90.4893 18.7159 90.3445 19.3636 90.3445 20.125ZM108.065 14.9091V16.6136H101.281V14.9091H108.065ZM103.259 11.7727H105.27V24.25C105.27 24.8182 105.352 25.2443 105.517 25.5284C105.688 25.8068 105.903 25.9943 106.165 26.0909C106.432 26.1818 106.713 26.2273 107.009 26.2273C107.23 26.2273 107.412 26.2159 107.554 26.1932C107.696 26.1648 107.81 26.142 107.895 26.125L108.304 27.9318C108.168 27.983 107.977 28.0341 107.733 28.0852C107.489 28.142 107.179 28.1705 106.804 28.1705C106.236 28.1705 105.679 28.0483 105.134 27.804C104.594 27.5597 104.145 27.1875 103.787 26.6875C103.435 26.1875 103.259 25.5568 103.259 24.7955V11.7727ZM114.943 28.3068C114.114 28.3068 113.361 28.1506 112.685 27.8381C112.009 27.5199 111.472 27.0625 111.074 26.4659C110.676 25.8636 110.477 25.1364 110.477 24.2841C110.477 23.5341 110.625 22.9261 110.92 22.4602C111.216 21.9886 111.611 21.6193 112.105 21.3523C112.599 21.0852 113.145 20.8864 113.741 20.7557C114.344 20.6193 114.949 20.5114 115.557 20.4318C116.352 20.3295 116.997 20.2528 117.491 20.2017C117.991 20.1449 118.355 20.0511 118.582 19.9205C118.815 19.7898 118.932 19.5625 118.932 19.2386V19.1705C118.932 18.3295 118.702 17.6761 118.241 17.2102C117.787 16.7443 117.097 16.5114 116.17 16.5114C115.21 16.5114 114.457 16.7216 113.912 17.142C113.366 17.5625 112.983 18.0114 112.761 18.4886L110.852 17.8068C111.193 17.0114 111.648 16.392 112.216 15.9489C112.79 15.5 113.415 15.1875 114.091 15.0114C114.773 14.8295 115.443 14.7386 116.102 14.7386C116.523 14.7386 117.006 14.7898 117.551 14.892C118.102 14.9886 118.634 15.1903 119.145 15.4972C119.662 15.804 120.091 16.267 120.432 16.8864C120.773 17.5057 120.943 18.3352 120.943 19.375V28H118.932V26.2273H118.83C118.693 26.5114 118.466 26.8153 118.148 27.1392C117.83 27.4631 117.406 27.7386 116.878 27.9659C116.349 28.1932 115.705 28.3068 114.943 28.3068ZM115.25 26.5C116.045 26.5 116.716 26.3438 117.261 26.0312C117.813 25.7188 118.227 25.3153 118.506 24.821C118.79 24.3267 118.932 23.8068 118.932 23.2614V21.4205C118.847 21.5227 118.659 21.6165 118.369 21.7017C118.085 21.7812 117.756 21.8523 117.381 21.9148C117.011 21.9716 116.651 22.0227 116.298 22.0682C115.952 22.108 115.67 22.142 115.455 22.1705C114.932 22.2386 114.443 22.3494 113.989 22.5028C113.54 22.6506 113.176 22.875 112.898 23.1761C112.625 23.4716 112.489 23.875 112.489 24.3864C112.489 25.0852 112.747 25.6136 113.264 25.9716C113.787 26.3239 114.449 26.5 115.25 26.5ZM129.933 28.2727C128.705 28.2727 127.648 27.983 126.762 27.4034C125.876 26.8239 125.194 26.0256 124.717 25.0085C124.239 23.9915 124.001 22.8295 124.001 21.5227C124.001 20.1932 124.245 19.0199 124.734 18.0028C125.228 16.9801 125.915 16.1818 126.796 15.608C127.683 15.0284 128.717 14.7386 129.898 14.7386C130.819 14.7386 131.648 14.9091 132.387 15.25C133.126 15.5909 133.731 16.0682 134.202 16.6818C134.674 17.2955 134.967 18.0114 135.08 18.8295H133.069C132.915 18.233 132.575 17.7045 132.046 17.2443C131.523 16.7784 130.819 16.5455 129.933 16.5455C129.148 16.5455 128.461 16.75 127.87 17.1591C127.285 17.5625 126.827 18.1335 126.498 18.8722C126.174 19.6051 126.012 20.4659 126.012 21.4545C126.012 22.4659 126.171 23.3466 126.489 24.0966C126.813 24.8466 127.268 25.429 127.853 25.8438C128.444 26.2585 129.137 26.4659 129.933 26.4659C130.455 26.4659 130.93 26.375 131.356 26.1932C131.782 26.0114 132.143 25.75 132.438 25.4091C132.734 25.0682 132.944 24.6591 133.069 24.1818H135.08C134.967 24.9545 134.685 25.6506 134.237 26.2699C133.793 26.8835 133.205 27.3722 132.472 27.7358C131.745 28.0938 130.898 28.2727 129.933 28.2727ZM143.714 14.9091V16.6136H136.93V14.9091H143.714ZM138.907 11.7727H140.918V24.25C140.918 24.8182 141.001 25.2443 141.165 25.5284C141.336 25.8068 141.552 25.9943 141.813 26.0909C142.08 26.1818 142.362 26.2273 142.657 26.2273C142.879 26.2273 143.06 26.2159 143.202 26.1932C143.344 26.1648 143.458 26.142 143.543 26.125L143.952 27.9318C143.816 27.983 143.626 28.0341 143.381 28.0852C143.137 28.142 142.827 28.1705 142.452 28.1705C141.884 28.1705 141.327 28.0483 140.782 27.804C140.242 27.5597 139.793 27.1875 139.435 26.6875C139.083 26.1875 138.907 25.5568 138.907 24.7955V11.7727ZM155.778 17.8409L153.971 18.3523C153.857 18.0511 153.69 17.7585 153.468 17.4744C153.252 17.1847 152.957 16.946 152.582 16.7585C152.207 16.571 151.727 16.4773 151.141 16.4773C150.34 16.4773 149.673 16.6619 149.138 17.0312C148.61 17.3949 148.346 17.858 148.346 18.4205C148.346 18.9205 148.528 19.3153 148.891 19.6051C149.255 19.8949 149.823 20.1364 150.596 20.3295L152.539 20.8068C153.71 21.0909 154.582 21.5256 155.156 22.1108C155.729 22.6903 156.016 23.4375 156.016 24.3523C156.016 25.1023 155.8 25.7727 155.369 26.3636C154.942 26.9545 154.346 27.4205 153.579 27.7614C152.812 28.1023 151.92 28.2727 150.903 28.2727C149.567 28.2727 148.462 27.983 147.587 27.4034C146.712 26.8239 146.158 25.9773 145.925 24.8636L147.835 24.3864C148.016 25.0909 148.36 25.6193 148.866 25.9716C149.377 26.3239 150.045 26.5 150.869 26.5C151.806 26.5 152.55 26.3011 153.102 25.9034C153.658 25.5 153.937 25.017 153.937 24.4545C153.937 24 153.778 23.6193 153.46 23.3125C153.141 23 152.653 22.767 151.994 22.6136L149.812 22.1023C148.613 21.8182 147.732 21.3778 147.17 20.7812C146.613 20.179 146.335 19.4261 146.335 18.5227C146.335 17.7841 146.542 17.1307 146.957 16.5625C147.377 15.9943 147.948 15.5483 148.67 15.2244C149.397 14.9006 150.221 14.7386 151.141 14.7386C152.437 14.7386 153.454 15.0227 154.192 15.5909C154.937 16.1591 155.465 16.9091 155.778 17.8409Z" fill="black"/>
</svg>
