<svg width="135" height="23" viewBox="0 0 135 23" fill="none" xmlns="http://www.w3.org/2000/svg">
<path d="M0.113636 0.545454H2.63636L8.56818 15.0341H8.77273L14.7045 0.545454H17.2273V18H15.25V4.73864H15.0795L9.625 18H7.71591L2.26136 4.73864H2.09091V18H0.113636V0.545454ZM22.4879 22.9091C22.147 22.9091 21.843 22.8807 21.576 22.8239C21.3089 22.7727 21.1243 22.7216 21.022 22.6705L21.5334 20.8977C22.022 21.0227 22.4538 21.0682 22.8288 21.0341C23.2038 21 23.5362 20.8324 23.826 20.5312C24.1214 20.2358 24.3913 19.7557 24.6357 19.0909L25.0107 18.0682L20.1697 4.90909H22.3516L25.9652 15.3409H26.1016L29.7152 4.90909H31.897L26.3402 19.9091C26.0902 20.5852 25.7805 21.1449 25.4112 21.5881C25.0419 22.0369 24.6129 22.3693 24.1243 22.5852C23.6413 22.8011 23.0959 22.9091 22.4879 22.9091Z" fill="black"/>
<path d="M48.87 6H46.7564C46.6314 5.39205 46.4126 4.85795 46.1001 4.39773C45.7933 3.9375 45.4183 3.55114 44.9751 3.23864C44.5376 2.92045 44.0518 2.68182 43.5178 2.52273C42.9837 2.36364 42.4268 2.28409 41.8473 2.28409C40.7905 2.28409 39.8331 2.55114 38.9751 3.08523C38.1229 3.61932 37.4439 4.40625 36.9382 5.44602C36.4382 6.4858 36.1882 7.76136 36.1882 9.27273C36.1882 10.7841 36.4382 12.0597 36.9382 13.0994C37.4439 14.1392 38.1229 14.9261 38.9751 15.4602C39.8331 15.9943 40.7905 16.2614 41.8473 16.2614C42.4268 16.2614 42.9837 16.1818 43.5178 16.0227C44.0518 15.8636 44.5376 15.6278 44.9751 15.3153C45.4183 14.9972 45.7933 14.608 46.1001 14.1477C46.4126 13.6818 46.6314 13.1477 46.7564 12.5455H48.87C48.7109 13.4375 48.4212 14.2358 48.0007 14.9403C47.5803 15.6449 47.0575 16.2443 46.4325 16.7386C45.8075 17.2273 45.1058 17.5994 44.3274 17.8551C43.5547 18.1108 42.728 18.2386 41.8473 18.2386C40.3587 18.2386 39.0348 17.875 37.8757 17.1477C36.7166 16.4205 35.8047 15.3864 35.1399 14.0455C34.4751 12.7045 34.1428 11.1136 34.1428 9.27273C34.1428 7.43182 34.4751 5.84091 35.1399 4.5C35.8047 3.15909 36.7166 2.125 37.8757 1.39773C39.0348 0.670454 40.3587 0.306818 41.8473 0.306818C42.728 0.306818 43.5547 0.434659 44.3274 0.690341C45.1058 0.946023 45.8075 1.32102 46.4325 1.81534C47.0575 2.30398 47.5803 2.90057 48.0007 3.60511C48.4212 4.30398 48.7109 5.10227 48.87 6ZM57.331 18.2727C56.1491 18.2727 55.1122 17.9915 54.2202 17.429C53.3338 16.8665 52.6406 16.0795 52.1406 15.0682C51.6463 14.0568 51.3991 12.875 51.3991 11.5227C51.3991 10.1591 51.6463 8.96875 52.1406 7.9517C52.6406 6.93466 53.3338 6.14489 54.2202 5.58239C55.1122 5.01989 56.1491 4.73864 57.331 4.73864C58.5128 4.73864 59.5469 5.01989 60.4332 5.58239C61.3253 6.14489 62.0185 6.93466 62.5128 7.9517C63.0128 8.96875 63.2628 10.1591 63.2628 11.5227C63.2628 12.875 63.0128 14.0568 62.5128 15.0682C62.0185 16.0795 61.3253 16.8665 60.4332 17.429C59.5469 17.9915 58.5128 18.2727 57.331 18.2727ZM57.331 16.4659C58.2287 16.4659 58.9673 16.2358 59.5469 15.7756C60.1264 15.3153 60.5554 14.7102 60.8338 13.9602C61.1122 13.2102 61.2514 12.3977 61.2514 11.5227C61.2514 10.6477 61.1122 9.83239 60.8338 9.0767C60.5554 8.32102 60.1264 7.71023 59.5469 7.24432C58.9673 6.77841 58.2287 6.54545 57.331 6.54545C56.4332 6.54545 55.6946 6.77841 55.1151 7.24432C54.5355 7.71023 54.1065 8.32102 53.8281 9.0767C53.5497 9.83239 53.4105 10.6477 53.4105 11.5227C53.4105 12.3977 53.5497 13.2102 53.8281 13.9602C54.1065 14.7102 54.5355 15.3153 55.1151 15.7756C55.6946 16.2358 56.4332 16.4659 57.331 16.4659ZM68.3445 10.125V18H66.3331V4.90909H68.2763V6.95455H68.4467C68.7536 6.28977 69.2195 5.75568 69.8445 5.35227C70.4695 4.94318 71.2763 4.73864 72.2649 4.73864C73.1513 4.73864 73.9268 4.92045 74.5916 5.28409C75.2564 5.64205 75.7734 6.1875 76.1428 6.92045C76.5121 7.64773 76.6967 8.56818 76.6967 9.68182V18H74.6854V9.81818C74.6854 8.78977 74.4183 7.98864 73.8842 7.41477C73.3501 6.83523 72.6172 6.54545 71.6854 6.54545C71.0433 6.54545 70.4695 6.68466 69.9638 6.96307C69.4638 7.24148 69.0689 7.64773 68.7791 8.18182C68.4893 8.71591 68.3445 9.36364 68.3445 10.125ZM86.0653 4.90909V6.61364H79.2812V4.90909H86.0653ZM81.2585 1.77273H83.2699V14.25C83.2699 14.8182 83.3523 15.2443 83.517 15.5284C83.6875 15.8068 83.9034 15.9943 84.1648 16.0909C84.4318 16.1818 84.7131 16.2273 85.0085 16.2273C85.2301 16.2273 85.4119 16.2159 85.554 16.1932C85.696 16.1648 85.8097 16.142 85.8949 16.125L86.304 17.9318C86.1676 17.983 85.9773 18.0341 85.733 18.0852C85.4886 18.142 85.179 18.1705 84.804 18.1705C84.2358 18.1705 83.679 18.0483 83.1335 17.804C82.5938 17.5597 82.1449 17.1875 81.7869 16.6875C81.4347 16.1875 81.2585 15.5568 81.2585 14.7955V1.77273ZM92.9432 18.3068C92.1136 18.3068 91.3608 18.1506 90.6847 17.8381C90.0085 17.5199 89.4716 17.0625 89.0739 16.4659C88.6761 15.8636 88.4773 15.1364 88.4773 14.2841C88.4773 13.5341 88.625 12.9261 88.9205 12.4602C89.2159 11.9886 89.6108 11.6193 90.1051 11.3523C90.5994 11.0852 91.1449 10.8864 91.7415 10.7557C92.3438 10.6193 92.9489 10.5114 93.5568 10.4318C94.3523 10.3295 94.9972 10.2528 95.4915 10.2017C95.9915 10.1449 96.3551 10.0511 96.5824 9.92045C96.8153 9.78977 96.9318 9.5625 96.9318 9.23864V9.17045C96.9318 8.32955 96.7017 7.67614 96.2415 7.21023C95.7869 6.74432 95.0966 6.51136 94.1705 6.51136C93.2102 6.51136 92.4574 6.72159 91.9119 7.14205C91.3665 7.5625 90.983 8.01136 90.7614 8.48864L88.8523 7.80682C89.1932 7.01136 89.6477 6.39205 90.2159 5.94886C90.7898 5.5 91.4148 5.1875 92.0909 5.01136C92.7727 4.82955 93.4432 4.73864 94.1023 4.73864C94.5227 4.73864 95.0057 4.78977 95.5511 4.89204C96.1023 4.98864 96.6335 5.19034 97.1449 5.49716C97.6619 5.80398 98.0909 6.26705 98.4318 6.88636C98.7727 7.50568 98.9432 8.33523 98.9432 9.375V18H96.9318V16.2273H96.8295C96.6932 16.5114 96.4659 16.8153 96.1477 17.1392C95.8295 17.4631 95.4063 17.7386 94.8778 17.9659C94.3494 18.1932 93.7045 18.3068 92.9432 18.3068ZM93.25 16.5C94.0455 16.5 94.7159 16.3438 95.2614 16.0312C95.8125 15.7188 96.2273 15.3153 96.5057 14.821C96.7898 14.3267 96.9318 13.8068 96.9318 13.2614V11.4205C96.8466 11.5227 96.6591 11.6165 96.3693 11.7017C96.0852 11.7812 95.7557 11.8523 95.3807 11.9148C95.0114 11.9716 94.6506 12.0227 94.2983 12.0682C93.9517 12.108 93.6705 12.142 93.4545 12.1705C92.9318 12.2386 92.4432 12.3494 91.9886 12.5028C91.5398 12.6506 91.1761 12.875 90.8977 13.1761C90.625 13.4716 90.4886 13.875 90.4886 14.3864C90.4886 15.0852 90.7472 15.6136 91.2642 15.9716C91.7869 16.3239 92.4489 16.5 93.25 16.5ZM107.933 18.2727C106.705 18.2727 105.648 17.983 104.762 17.4034C103.876 16.8239 103.194 16.0256 102.717 15.0085C102.239 13.9915 102.001 12.8295 102.001 11.5227C102.001 10.1932 102.245 9.01989 102.734 8.00284C103.228 6.98011 103.915 6.18182 104.796 5.60795C105.683 5.02841 106.717 4.73864 107.898 4.73864C108.819 4.73864 109.648 4.90909 110.387 5.25C111.126 5.59091 111.731 6.06818 112.202 6.68182C112.674 7.29545 112.967 8.01136 113.08 8.82955H111.069C110.915 8.23295 110.575 7.70455 110.046 7.24432C109.523 6.77841 108.819 6.54545 107.933 6.54545C107.148 6.54545 106.461 6.75 105.87 7.15909C105.285 7.5625 104.827 8.13352 104.498 8.87216C104.174 9.60511 104.012 10.4659 104.012 11.4545C104.012 12.4659 104.171 13.3466 104.489 14.0966C104.813 14.8466 105.268 15.429 105.853 15.8438C106.444 16.2585 107.137 16.4659 107.933 16.4659C108.455 16.4659 108.93 16.375 109.356 16.1932C109.782 16.0114 110.143 15.75 110.438 15.4091C110.734 15.0682 110.944 14.6591 111.069 14.1818H113.08C112.967 14.9545 112.685 15.6506 112.237 16.2699C111.793 16.8835 111.205 17.3722 110.472 17.7358C109.745 18.0938 108.898 18.2727 107.933 18.2727ZM121.714 4.90909V6.61364H114.93V4.90909H121.714ZM116.907 1.77273H118.918V14.25C118.918 14.8182 119.001 15.2443 119.165 15.5284C119.336 15.8068 119.552 15.9943 119.813 16.0909C120.08 16.1818 120.362 16.2273 120.657 16.2273C120.879 16.2273 121.06 16.2159 121.202 16.1932C121.344 16.1648 121.458 16.142 121.543 16.125L121.952 17.9318C121.816 17.983 121.626 18.0341 121.381 18.0852C121.137 18.142 120.827 18.1705 120.452 18.1705C119.884 18.1705 119.327 18.0483 118.782 17.804C118.242 17.5597 117.793 17.1875 117.435 16.6875C117.083 16.1875 116.907 15.5568 116.907 14.7955V1.77273ZM133.778 7.84091L131.971 8.35227C131.857 8.05114 131.69 7.75852 131.468 7.47443C131.252 7.18466 130.957 6.94602 130.582 6.75852C130.207 6.57102 129.727 6.47727 129.141 6.47727C128.34 6.47727 127.673 6.66193 127.138 7.03125C126.61 7.39489 126.346 7.85795 126.346 8.42045C126.346 8.92045 126.528 9.31534 126.891 9.60511C127.255 9.89489 127.823 10.1364 128.596 10.3295L130.539 10.8068C131.71 11.0909 132.582 11.5256 133.156 12.1108C133.729 12.6903 134.016 13.4375 134.016 14.3523C134.016 15.1023 133.8 15.7727 133.369 16.3636C132.942 16.9545 132.346 17.4205 131.579 17.7614C130.812 18.1023 129.92 18.2727 128.903 18.2727C127.567 18.2727 126.462 17.983 125.587 17.4034C124.712 16.8239 124.158 15.9773 123.925 14.8636L125.835 14.3864C126.016 15.0909 126.36 15.6193 126.866 15.9716C127.377 16.3239 128.045 16.5 128.869 16.5C129.806 16.5 130.55 16.3011 131.102 15.9034C131.658 15.5 131.937 15.017 131.937 14.4545C131.937 14 131.778 13.6193 131.46 13.3125C131.141 13 130.653 12.767 129.994 12.6136L127.812 12.1023C126.613 11.8182 125.732 11.3778 125.17 10.7812C124.613 10.179 124.335 9.42614 124.335 8.52273C124.335 7.78409 124.542 7.13068 124.957 6.5625C125.377 5.99432 125.948 5.5483 126.67 5.22443C127.397 4.90057 128.221 4.73864 129.141 4.73864C130.437 4.73864 131.454 5.02273 132.192 5.59091C132.937 6.15909 133.465 6.90909 133.778 7.84091Z" fill="#5061FC"/>
</svg>
